Coordinates
version=1
nRows=8
nColumns=40
inDegrees=yes

Units are S.I. units (second, meters, Newtons, ...)
If the header above contains a line with 'inDegrees', this indicates whether rotational values are in degrees (yes) or radians (no).

endheader
time	pelvis_tilt	pelvis_list	pelvis_rotation	pelvis_tx	pelvis_ty	pelvis_tz	hip_flexion_r	hip_adduction_r	hip_rotation_r	knee_angle_r	knee_angle_r_beta	ankle_angle_r	subtalar_angle_r	mtp_angle_r	hip_flexion_l	hip_adduction_l	hip_rotation_l	knee_angle_l	knee_angle_l_beta	ankle_angle_l	subtalar_angle_l	mtp_angle_l	lumbar_extension	lumbar_bending	lumbar_rotation	arm_flex_r	arm_add_r	arm_rot_r	elbow_flex_r	pro_sup_r	wrist_flex_r	wrist_dev_r	arm_flex_l	arm_add_l	arm_rot_l	elbow_flex_l	pro_sup_l	wrist_flex_l	wrist_dev_l
      0.53000000	      0.45940034	      9.05105600	    -89.87197972	      0.25530995	      0.96073768	     -0.46311703	     26.36325107	     -1.81843121	     -2.64445629	     66.27462492	      1.15671042	     -6.39630438	      0.00000000	      0.00000000	     21.51443464	      4.52198033	      3.54399576	     20.23646729	      0.35319298	      2.48156202	      0.00000000	      0.00000000	      4.22098095	     -1.46731253	     -2.20661679	      0.00000000	      0.00000000	      0.00000000	      0.00000000	      0.00000000	      0.00000000	      0.00000000	      0.00000000	      0.00000000	      0.00000000	      0.00000000	      0.00000000	      0.00000000	      0.00000000
      0.54000000	      0.04732485	      9.16122535	    -89.86965824	      0.25560676	      0.96278027	     -0.44950227	     28.01355560	     -1.35148361	     -2.76024442	     65.23914355	      1.13863786	     -4.57900307	      0.00000000	      0.00000000	     20.24082679	      4.11647377	      3.79126730	     19.34556296	      0.33764377	      2.79438305	      0.00000000	      0.00000000	      4.30432183	     -0.92183615	     -2.35908923	      0.00000000	      0.00000000	      0.00000000	      0.00000000	      0.00000000	      0.00000000	      0.00000000	      0.00000000	      0.00000000	      0.00000000	      0.00000000	      0.00000000	      0.00000000	      0.00000000
      0.55000000	     -0.27982943	      9.13714279	    -89.86758642	      0.25587345	      0.96468895	     -0.43578175	     29.37241526	     -0.99586317	     -2.92432193	     63.81203191	      1.11373006	     -2.84734237	      0.00000000	      0.00000000	     18.80732343	      3.77963887	      3.91305669	     18.42102323	      0.32150751	      3.08374409	      0.00000000	      0.00000000	      4.23233088	     -0.48311484	     -2.49254027	      0.00000000	      0.00000000	      0.00000000	      0.00000000	      0.00000000	      0.00000000	      0.00000000	      0.00000000	      0.00000000	      0.00000000	      0.00000000	      0.00000000	      0.00000000	      0.00000000
      0.56000000	     -0.59283734	      9.12495689	    -89.86416244	      0.25610223	      0.96625367	     -0.42203266	     30.60034981	     -0.66817324	     -3.14705771	     61.98515643	      1.08184507	     -1.48582800	      0.00000000	      0.00000000	     17.38011033	      3.45918066	      4.06078549	     17.48148108	      0.30510940	      3.36258248	      0.00000000	     -0.00000000	      4.17750656	     -0.06571585	     -2.61003268	     -0.00000000	      0.00000000	      0.00000000	      0.00000000	      0.00000000	      0.00000000	      0.00000000	      0.00000000	     -0.00000000	      0.00000000	      0.00000000	      0.00000000	     -0.00000000	     -0.00000000
      0.57000000	     -0.84612987	      9.08642334	    -89.85929139	      0.25632532	      0.96747218	     -0.40822892	     31.65802552	     -0.41929903	     -3.41028623	     59.79882645	      1.04368641	     -0.37685244	      0.00000000	      0.00000000	     15.92274147	      3.20077314	      4.19052896	     16.53797941	      0.28864219	      3.63192345	      0.00000000	      0.00000000	      4.09585454	      0.28332669	     -2.70328803	      0.00000000	      0.00000000	      0.00000000	      0.00000000	      0.00000000	      0.00000000	      0.00000000	      0.00000000	      0.00000000	      0.00000000	      0.00000000	      0.00000000	      0.00000000	      0.00000000
      0.58000000	     -1.01223604	      9.24174974	    -89.85349242	      0.25650111	      0.96796627	     -0.39451076	     32.82543291	     -0.27231052	     -3.70468406	     57.33596890	      1.00070144	      0.49030558	      0.00000000	      0.00000000	     14.72555458	      3.02359830	      4.22932921	     15.67658230	      0.27360798	      3.95520080	      0.00000000	      0.00000000	      4.24164329	      0.51303044	     -2.78218762	      0.00000000	      0.00000000	      0.00000000	      0.00000000	      0.00000000	      0.00000000	      0.00000000	      0.00000000	      0.00000000	      0.00000000	      0.00000000	      0.00000000	      0.00000000	      0.00000000
      0.59000000	     -1.14532896	      8.88702052	    -89.84332520	      0.25668642	      0.96887242	     -0.38038522	     33.21166018	     -0.17442518	     -4.08132868	     54.44942870	      0.95032181	      1.22632613	      0.00000000	      0.00000000	     12.86894480	      2.88883894	      4.35950246	     14.65118195	      0.25571136	      4.16713490	      0.00000000	      0.00000000	      3.79691735	      0.70980494	     -2.83986047	      0.00000000	      0.00000000	      0.00000000	      0.00000000	      0.00000000	      0.00000000	      0.00000000	      0.00000000	      0.00000000	      0.00000000	      0.00000000	      0.00000000	      0.00000000	      0.00000000
      0.60000000	     -1.17801952	      8.71628730	    -89.83226443	      0.25685529	      0.96902793	     -0.36632417	     33.70608399	     -0.19030066	     -4.49356047	     51.34143489	      0.89607708	      1.73150097	      0.00000000	      0.00000000	     11.25574445	      2.85509673	      4.41798286	     13.69945197	      0.23910054	      4.42794125	      0.00000000	      0.00000000	      3.57015745	      0.78161095	     -2.88461334	      0.00000000	      0.00000000	      0.00000000	      0.00000000	      0.00000000	      0.00000000	      0.00000000	      0.00000000	      0.00000000	      0.00000000	      0.00000000	      0.00000000	      0.00000000	      0.00000000
